<svg width="241" height="204" viewBox="0 0 241 204" fill="none" xmlns="http://www.w3.org/2000/svg">
<path d="M148.688 138.82C137.22 140.158 123.698 136.755 114.151 137.085C105.039 137.396 93.2208 147.944 96.0784 159.982C96.9016 163.45 99.1252 166.467 101.812 168.814C107.613 173.885 115.438 176.025 123.102 176.911C170.962 182.397 206.785 141.412 207.93 95.2517C209.804 19.8607 100.611 9.10542 48.0486 31.4173C32.0103 38.223 17.2494 48.8935 0 51.4763C3.10358 40.5136 12.9347 32.8972 22.7091 26.9964C76.1417 -5.24129 169.268 -14.5261 217.648 32.4447C256.13 69.8009 242.779 135.832 208.526 171.482C192.053 188.628 169.779 200.326 146.152 203.304C111.814 207.631 64.0112 191.908 59.5073 152.318C55.0128 112.784 99.3712 85.1845 135.006 89.4828C144.657 90.6423 154.488 93.7246 161.424 100.512C168.359 107.298 171.624 118.421 167.196 127.046C163.193 134.851 156.409 137.905 148.688 138.81V138.82Z" fill="#93A378"/>
</svg>
