<svg width="372" height="186" viewBox="0 0 372 186" fill="none" xmlns="http://www.w3.org/2000/svg">
<path d="M90.06 84.4056C83.12 85.2256 74.92 83.1456 69.14 83.3556C63.62 83.5456 56.47 89.9556 58.2 97.2756C58.7 99.3856 60.04 101.216 61.67 102.646C65.18 105.726 69.92 107.036 74.57 107.566C103.56 110.906 125.26 85.9756 125.95 57.9156C127.08 12.0856 60.94 5.54562 29.1 19.1056C19.39 23.2456 10.45 29.7356 0 31.3056C1.88 24.6456 7.83 20.0056 13.76 16.4156C46.12 -3.18438 102.53 -8.83438 131.83 19.7256C155.14 42.4356 147.05 82.5856 126.31 104.266C116.33 114.686 102.84 121.806 88.53 123.616C67.73 126.246 38.78 116.686 36.05 92.6156C33.33 68.5756 60.2 51.8056 81.78 54.4156C87.63 55.1256 93.58 56.9956 97.78 61.1256C101.98 65.2556 103.96 72.0156 101.27 77.2556C98.84 81.9956 94.73 83.8556 90.06 84.4056Z" fill="#645C42"/>
<path d="M215.97 99.3168C218.57 110.627 226.45 118.817 237.71 121.627C251.01 124.957 262.05 118.657 272.04 110.327C280.01 103.687 287.97 96.5368 292.55 87.2368C298.44 75.2868 302.48 51.3868 293.9 40.1368C286.9 30.9668 277.78 24.8768 266.24 22.9268C241.89 18.8068 220.49 29.7468 203.3 46.0068C188.81 59.7168 177.28 76.1868 165.86 92.5368C157.93 103.877 150.01 115.217 142.08 126.557C136.09 135.127 130.06 143.747 122.67 151.137C115.77 158.027 104.95 166.577 95.34 168.647C83.37 171.217 69.88 168.147 58.44 164.587C55.43 163.647 41.13 156.257 38.81 157.497C35.48 159.267 47.13 167.527 48.84 168.857C68.84 184.447 93.38 192.897 116.39 178.067C135.55 165.717 152.62 145.867 164.9 127.047C181.62 101.407 201.11 77.5768 222.92 56.1068C231.67 47.4868 245.54 44.5368 257.04 48.8268C263.76 51.3368 269.8 56.4468 272.03 63.2668C276.06 75.6268 261.1 100.197 246.71 91.5868C240.33 87.7668 236.78 81.6668 228.2 82.5768C216.76 83.7968 214.11 91.2668 215.96 99.3168H215.97Z" fill="#645C42"/>
<path d="M347.91 87.2649C370.79 94.2849 382.25 54.9249 359.75 50.3149C337.58 45.7749 324.41 80.0449 347.91 87.2649Z" fill="#645C42"/>
</svg>
