<svg width="346" height="292" viewBox="0 0 346 292" fill="none" xmlns="http://www.w3.org/2000/svg">
<path d="M287.037 249.647C281.161 250.619 274.099 249.167 269.186 249.574C264.494 249.954 258.659 255.705 260.419 261.882C260.928 263.663 262.14 265.172 263.584 266.328C266.693 268.818 270.78 269.749 274.76 270.018C299.572 271.727 317.067 249.6 316.552 225.631C315.714 186.481 259.149 183.505 232.574 196.328C224.47 200.243 217.114 206.133 208.279 207.884C209.618 202.127 214.502 197.934 219.409 194.637C246.189 176.639 293.991 169.597 320.058 192.813C340.795 211.273 335.484 245.85 318.679 265.165C310.592 274.449 299.387 281.055 287.275 283.163C269.67 286.226 244.648 279.209 241.379 258.778C238.119 238.373 260.336 223.006 278.81 224.383C283.819 224.759 288.958 226.12 292.695 229.479C296.433 232.837 298.385 238.527 296.3 243.104C294.418 247.245 290.992 248.993 287.037 249.647Z" fill="#645C42"/>
<path d="M58.9226 41.4863C64.7988 40.5134 71.8615 41.9654 76.774 41.5586C81.466 41.1792 87.3013 35.4283 85.541 29.2505C85.0324 27.4698 83.8198 25.9611 82.3759 24.8051C79.2667 22.3153 75.1798 21.3841 71.2003 21.1149C46.3885 19.4063 28.8936 41.5324 29.4083 65.5021C30.2465 104.652 86.8114 107.628 113.386 94.8044C121.49 90.8897 128.846 85.0001 137.681 83.249C136.342 89.0058 131.458 93.1991 126.551 96.4958C99.7713 114.494 51.9687 121.535 25.9025 98.3197C5.16556 79.8597 10.4759 45.2828 27.2812 25.9676C35.3684 16.6837 46.5734 10.0774 58.685 7.96964C76.2897 4.9067 101.312 11.9242 104.581 32.3547C107.841 52.7601 85.6243 68.1271 67.1498 66.7496C62.1415 66.3741 57.0025 65.0128 53.2647 61.6541C49.5268 58.2955 47.5756 52.6054 49.6599 48.0284C51.5425 43.8883 54.9684 42.1394 58.9226 41.4863Z" fill="#645C42"/>
<path d="M302.807 62.0834C302.223 68.0239 298.996 74.4855 298.117 79.3466C297.268 83.9871 301.3 91.1248 307.71 91.0195C309.557 90.988 311.325 90.2045 312.813 89.1059C316.017 86.7403 317.973 83.0249 319.262 79.2419C327.33 55.6639 310.534 33.0004 287.3 27.2949C249.353 17.9737 231.844 71.9638 237.325 101.009C239 109.868 242.772 118.514 242.173 127.52C236.972 124.734 234.194 118.921 232.287 113.317C221.873 82.7333 227.459 34.6331 256.579 15.4071C279.737 0.109458 311.687 14.1996 325.952 35.4679C332.807 45.7 336.273 58.2573 335.17 70.5282C333.565 88.364 320.326 110.772 299.79 108.649C279.28 106.524 270.22 81.0382 276.33 63.5095C277.988 58.7582 280.63 54.1355 284.834 51.3861C289.038 48.6368 295.027 48.2205 298.899 51.4229C302.402 54.317 303.201 58.0863 302.807 62.0834Z" fill="#645C42"/>
<path d="M43.1934 229.913C43.7766 223.972 47.0039 217.511 47.8834 212.649C48.7321 208.009 44.7 200.871 38.2905 200.977C36.4427 201.008 34.6748 201.792 33.187 202.89C29.9826 205.256 28.0275 208.971 26.7381 212.754C18.6696 236.332 35.4658 258.996 58.7 264.701C96.6475 274.022 114.156 220.032 108.675 190.987C107 182.128 103.228 173.482 103.827 164.476C109.028 167.262 111.806 173.075 113.713 178.679C124.127 209.263 118.541 257.363 89.4207 276.589C66.2627 291.887 34.3134 277.797 20.0477 256.528C13.1934 246.296 9.72665 233.739 10.83 221.468C12.4345 203.632 25.6738 181.225 46.2102 183.347C66.7197 185.472 75.7796 210.958 69.6705 228.487C68.0124 233.238 65.3703 237.861 61.1659 240.61C56.9616 243.359 50.9727 243.776 47.1011 240.573C43.5982 237.679 42.7995 233.91 43.1934 229.913Z" fill="#645C42"/>
<path d="M163.79 182.386C211.491 194.637 231.327 112.661 184.636 105.326C138.629 98.1038 114.796 169.782 163.79 182.386Z" fill="#645C42"/>
</svg>
