<svg width="287" height="337" viewBox="0 0 287 337" fill="none" xmlns="http://www.w3.org/2000/svg">
<path d="M99.9962 111.497C108.875 111.815 116.493 107.618 120.802 99.8623C125.9 90.7035 123.428 81.3082 119.248 72.2865C115.917 65.0902 112.207 57.8003 106.237 52.5802C98.5673 45.8689 81.6942 38.1597 71.6749 42.2679C63.5068 45.6213 57.1963 51.1487 53.4677 59.2813C45.5963 76.4403 49.4459 94.4005 58.0638 110.305C65.331 123.713 75.2257 135.481 85.0535 147.145C91.868 155.241 98.6844 163.33 105.499 171.427C110.649 177.543 115.829 183.699 119.829 190.616C123.557 197.072 127.736 206.75 127.362 214.253C126.891 223.597 121.948 232.947 117.049 240.687C115.757 242.723 107.459 251.817 107.916 253.775C108.565 256.583 116.982 249.617 118.304 248.618C133.795 236.939 144.907 220.496 138.499 200.578C133.163 183.992 121.867 167.466 110.383 154.679C94.7355 137.266 80.9754 118.166 69.4202 97.8205C64.7796 89.6568 65.3464 78.8351 70.7974 71.1949C73.9851 66.731 78.9606 63.2832 84.4458 62.9861C94.3843 62.456 109.589 78.3583 100.371 87.2774C96.282 91.2312 91.0677 92.6452 90.0405 99.1585C88.6759 107.844 93.6748 111.278 99.9942 111.504L99.9962 111.497Z" fill="#645C42"/>
<path d="M136.032 63.7045C153.548 69.0691 162.321 38.9906 145.096 35.4676C128.123 31.9982 118.041 58.187 136.032 63.7045Z" fill="#645C42"/>
<path d="M103.878 38.4857C121.394 43.8503 130.167 13.7718 112.942 10.2489C95.9694 6.77947 85.8869 32.9683 103.878 38.4857Z" fill="#645C42"/>
<path d="M58.7092 28.5521C76.2254 33.9167 84.9988 3.83821 67.7735 0.315295C50.8008 -3.15413 40.7183 23.0347 58.7092 28.5521Z" fill="#645C42"/>
<path d="M90.0975 233.357C107.614 238.721 116.387 208.643 99.1618 205.12C82.1892 201.651 72.1066 227.839 90.0975 233.357Z" fill="#645C42"/>
<path d="M186.974 193.267C178.096 193.584 170.478 189.388 166.169 181.632C161.071 172.473 163.542 163.078 167.723 154.056C171.054 146.86 174.764 139.57 180.733 134.35C188.403 127.638 205.276 119.929 215.296 124.037C223.464 127.391 229.774 132.918 233.503 141.051C241.374 158.21 237.525 176.17 228.907 192.075C221.64 205.482 211.745 217.251 201.917 228.914C195.103 237.011 188.286 245.1 181.472 253.196C176.321 259.313 171.142 265.469 167.141 272.385C163.413 278.841 159.235 288.519 159.608 296.022C160.079 305.366 165.023 314.717 169.922 322.457C171.213 324.493 179.512 333.587 179.054 335.545C178.405 338.353 169.989 331.387 168.667 330.388C153.175 318.708 142.064 302.265 148.471 282.347C153.807 265.762 165.104 249.235 176.588 236.449C192.235 219.035 205.995 199.936 217.55 179.59C222.191 171.426 221.624 160.605 216.173 152.964C212.986 148.501 208.01 145.053 202.525 144.756C192.586 144.226 177.381 160.128 186.6 169.047C190.689 173.001 195.903 174.415 196.93 180.928C198.295 189.614 193.296 193.047 186.976 193.274L186.974 193.267Z" fill="#645C42"/>
<path d="M150.939 145.474C133.423 150.839 124.649 120.76 141.875 117.237C158.847 113.768 168.93 139.957 150.939 145.474Z" fill="#645C42"/>
<path d="M183.093 120.255C165.577 125.62 156.803 95.5413 174.028 92.0184C191.001 88.549 201.084 114.738 183.093 120.255Z" fill="#645C42"/>
<path d="M228.261 110.322C210.745 115.686 201.972 85.6077 219.197 82.0848C236.17 78.6154 246.252 104.804 228.261 110.322Z" fill="#645C42"/>
<path d="M196.873 315.126C179.357 320.491 170.583 290.412 187.809 286.89C204.781 283.42 214.864 309.609 196.873 315.126Z" fill="#645C42"/>
</svg>
