<svg width="310" height="247" viewBox="0 0 310 247" fill="none" xmlns="http://www.w3.org/2000/svg">
<path d="M107.891 70.2808C100.097 79.0401 95.1028 92.3285 89.2656 100.08C83.7056 107.492 67.985 111.152 59.5287 101.716C57.0924 98.9945 55.8492 95.3867 55.4371 91.7654C54.5489 83.9668 57.2873 76.1818 61.0173 69.2724C84.2223 26.1618 139.502 20.3312 178.944 46.4279C243.368 89.0472 188.933 186.362 139.637 217.105C124.597 226.475 107.048 232.522 94.8491 245.388C105.858 249.22 117.981 245.505 128.633 240.806C186.776 215.169 248.72 142.993 237.367 75.1471C228.351 21.1822 165.098 -6.38506 115.232 1.25717C91.2532 4.94645 68.467 16.6464 52.2325 34.5928C28.6365 60.6793 14.0662 109.73 44.7122 136.687C75.3263 163.601 124.29 142.791 141.392 110.581C146.025 101.847 149.151 91.8569 147.474 82.0968C145.796 72.3366 138.354 63.0963 128.53 61.7472C119.648 60.5222 113.133 64.3849 107.891 70.2808Z" fill="#645C42"/>
<path d="M265.381 48.9311C285.392 55.0957 295.415 20.5317 275.737 16.4834C256.346 12.4966 244.828 42.5908 265.381 48.9311Z" fill="#645C42"/>
<path d="M288.996 102.498C309.007 108.662 319.03 74.0981 299.351 70.0498C279.961 66.063 268.442 96.1572 288.996 102.498Z" fill="#645C42"/>
<path d="M281.124 159.576C301.135 165.74 311.159 131.176 291.48 127.128C272.09 123.141 260.571 153.235 281.124 159.576Z" fill="#645C42"/>
<path d="M252.262 213.146C272.273 219.311 282.296 184.747 262.617 180.698C243.227 176.711 231.709 206.806 252.262 213.146Z" fill="#645C42"/>
</svg>
