<svg width="313" height="292" viewBox="0 0 313 292" fill="none" xmlns="http://www.w3.org/2000/svg">
<path d="M175.566 171.225C167.708 172.152 158.424 169.8 151.879 170.037C145.629 170.252 137.534 177.501 139.492 185.78C140.059 188.166 141.576 190.235 143.421 191.853C147.395 195.336 152.762 196.817 158.027 197.417C190.851 201.194 215.421 173 216.202 141.267C217.481 89.4373 142.595 82.0411 106.544 97.3763C95.55 102.058 85.4278 109.398 73.5958 111.173C75.7244 103.642 82.4613 98.3941 89.1755 94.3342C125.815 72.1683 189.685 65.7786 222.859 98.0775C249.252 123.76 240.092 169.167 216.609 193.685C205.31 205.469 190.036 213.521 173.833 215.568C150.283 218.542 117.504 207.731 114.413 180.51C111.333 153.323 141.757 134.357 166.191 137.309C172.814 138.112 179.551 140.227 184.307 144.897C189.062 149.568 191.304 157.213 188.258 163.139C185.507 168.499 180.853 170.603 175.566 171.225Z" fill="#645C42"/>
<path d="M285.809 166.652C311.714 174.591 324.69 130.079 299.214 124.865C274.113 119.731 259.201 158.487 285.809 166.652Z" fill="#645C42"/>
<path d="M14.0702 166.652C39.976 174.591 52.9515 130.079 27.476 124.865C2.37415 119.731 -12.5375 158.487 14.0702 166.652Z" fill="#645C42"/>
<path d="M54.831 69.3944C80.7367 77.3334 93.7122 32.8207 68.2367 27.6072C43.1349 22.4729 28.2232 61.2292 54.831 69.3944Z" fill="#645C42"/>
<path d="M153.336 42.2538C179.242 50.1928 192.217 5.6801 166.742 0.4666C141.64 -4.66774 126.729 34.0886 153.336 42.2538Z" fill="#645C42"/>
<path d="M249.577 75.0507C275.483 82.9897 288.458 38.477 262.983 33.2635C237.881 28.1291 222.969 66.8855 249.577 75.0507Z" fill="#645C42"/>
<path d="M249.577 258.258C275.483 266.197 288.458 221.684 262.983 216.471C237.881 211.336 222.969 250.093 249.577 258.258Z" fill="#645C42"/>
<path d="M153.336 291.055C179.242 298.994 192.217 254.481 166.742 249.267C141.64 244.133 126.729 282.889 153.336 291.055Z" fill="#645C42"/>
<path d="M54.831 248.078C80.7367 256.017 93.7122 211.504 68.2367 206.291C43.1349 201.156 28.2232 239.913 54.831 248.078Z" fill="#645C42"/>
</svg>
