<svg width="344" height="325" viewBox="0 0 344 325" fill="none" xmlns="http://www.w3.org/2000/svg">
<path d="M207.259 163.284C215.066 171.673 225.848 174.786 236.864 171.629C249.881 167.91 256.211 157.071 260.641 145.015C264.178 135.401 267.455 125.355 266.78 115.14C265.917 102.012 257.572 79.5777 244.681 74.1929C234.168 69.8069 223.362 69.1017 212.532 73.132C189.675 81.6317 176.777 101.554 170.105 123.948C164.483 142.828 162.755 162.606 161.062 182.228C159.879 195.842 158.705 209.45 157.523 223.064C156.632 233.351 155.731 243.701 153.06 253.67C150.561 262.969 145.53 275.624 138.334 282.139C129.367 290.247 116.316 294.283 104.776 296.887C101.738 297.569 85.8615 298.31 84.4899 300.516C82.5162 303.674 96.5563 304.985 98.6751 305.279C123.474 308.736 148.631 303.846 160.985 279.801C171.272 259.779 176.069 234.374 177.278 212.216C178.917 182.032 183.819 152.029 191.869 122.898C195.096 111.206 205.5 101.834 217.451 99.8249C224.437 98.6534 232.125 100.041 237.399 104.773C246.947 113.353 246.285 141.753 229.729 141.495C222.387 141.378 216.34 137.914 209.452 142.929C200.272 149.621 201.694 157.318 207.25 163.289L207.259 163.284Z" fill="#645C42"/>
<path d="M4.22214 188.34C-23.1248 273.576 123.871 318.217 142.169 234.292C160.189 151.599 32.3468 100.795 4.22214 188.34Z" fill="#645C42"/>
<path d="M232.734 20.849C223.96 48.1974 271.124 62.5206 276.995 35.593C282.777 9.06029 241.758 -7.24031 232.734 20.849Z" fill="#645C42"/>
<path d="M276.18 77.1381C267.405 104.486 314.57 118.81 320.441 91.8821C326.222 65.3494 285.204 49.0487 276.18 77.1381Z" fill="#645C42"/>
<path d="M298.89 14.9232C290.116 42.2716 337.28 56.5948 343.151 29.6672C348.933 3.13451 307.914 -13.1661 298.89 14.9232Z" fill="#645C42"/>
</svg>
