<svg width="132" height="38" viewBox="0 0 132 38" fill="none" xmlns="http://www.w3.org/2000/svg">
<path d="M82.1805 17.4389C88.0427 15.8534 93.8412 14.0786 99.8634 13.218C107.829 12.0802 119.233 19.4024 121.546 27.1914C122.335 29.8519 122.145 32.6951 121.857 35.4555C121.803 35.9824 121.769 36.5844 122.135 36.9662C122.725 37.5814 123.752 37.1224 124.437 36.6174C126.801 34.8705 128.97 32.7394 130.211 30.0753C132.872 24.3535 129.911 17.0016 125.822 12.763C117.66 4.30087 106.377 2.44128 95.2023 3.81098C85.7799 4.96543 76.7091 8.01348 67.7119 11.0446C61.4712 13.1474 55.2305 15.2502 48.9898 17.353C44.2749 18.9411 39.53 20.5377 34.6111 21.2769C30.0224 21.9683 23.458 22.1811 19.1984 20.2541C13.8867 17.8556 9.59058 12.8641 6.21675 8.27194C5.32865 7.06382 1.94063 0.189788 0.701957 0.00778252C-1.07741 -0.254644 1.05375 6.20021 1.33355 7.18986C4.58441 18.8106 11.5922 28.9836 24.5954 29.8077C36.3165 30.5499 46.9919 27.1743 58.0183 23.8238C64.9676 21.7118 72.0358 20.0265 79.0765 18.2498C80.1138 17.9882 81.1455 17.7157 82.1761 17.4356L82.1805 17.4389Z" fill="#F6EDD0"/>
</svg>
