<svg width="1440" height="1295" viewBox="0 0 1440 1295" fill="none" xmlns="http://www.w3.org/2000/svg">
<rect width="1440" height="1295" fill="#474E3A"/>
<g opacity="0.1">
<mask id="mask0_20_385" style="mask-type:alpha" maskUnits="userSpaceOnUse" x="0" y="0" width="1440" height="1295">
<rect width="1440" height="1295" fill="#474E3A"/>
</mask>
<g mask="url(#mask0_20_385)">
<path d="M-292.925 494.957C-350.349 441.538 -409.413 390.11 -459.984 329.986C-526.874 250.453 -524.526 75.447 -454.958 -3.10893C-431.188 -29.9318 -398.73 -47.2731 -366.507 -62.9721C-360.369 -65.9876 -353.538 -69.726 -351.852 -76.3423C-349.14 -87.0121 -361.187 -95.1325 -371.398 -99.1861C-406.694 -113.163 -444.872 -122.384 -482.547 -117.785C-563.432 -107.855 -623.783 -25.1825 -642.305 48.5889C-679.291 195.854 -622.594 332.217 -531.244 445.334C-454.223 540.717 -358.851 619.31 -264.166 697.213C-198.487 751.246 -132.808 805.279 -67.1293 859.311C-17.5139 900.138 32.3981 941.235 74.1027 990.096C113.027 1035.66 160.204 1106.16 168.183 1166.01C178.182 1240.61 152.824 1321.79 125.542 1390.14C118.368 1408.13 66.1735 1492.22 72.6405 1507.04C81.9199 1528.33 138.106 1460.88 147.041 1451.05C252.196 1336.04 315.819 1189.73 236.021 1041.59C164.085 908.057 54.1605 814.115 -57.8865 716.155C-128.507 654.419 -195.263 588.464 -262.833 523.435C-272.786 513.854 -282.821 504.408 -292.931 495.027L-292.925 494.957Z" fill="#93A378"/>
<path d="M49.2083 503.845C-8.21525 450.426 -67.2794 398.999 -117.851 338.875C-184.74 259.341 -182.392 84.3357 -112.824 5.77974C-89.0547 -21.0431 -56.5964 -38.3845 -24.3733 -54.0834C-18.2352 -57.0989 -11.4043 -60.8373 -9.71796 -67.4536C-7.00622 -78.1235 -19.0529 -86.2438 -29.264 -90.2975C-64.5598 -104.274 -102.738 -113.495 -140.414 -108.896C-221.299 -98.9668 -281.65 -16.2938 -300.171 57.4776C-337.157 204.743 -280.461 341.106 -189.11 454.223C-112.09 549.606 -16.7171 628.199 77.9675 706.102C143.646 760.135 209.325 814.167 275.004 868.2C324.62 909.026 374.532 950.123 416.236 998.985C455.161 1044.55 502.338 1115.05 510.317 1174.89C520.316 1249.5 494.957 1330.68 467.675 1399.03C460.501 1417.01 408.307 1501.11 414.774 1515.92C424.054 1537.22 480.24 1469.77 489.175 1459.94C594.33 1344.92 657.953 1198.62 578.155 1050.48C506.219 916.946 396.294 823.004 284.247 725.043C213.626 663.308 146.871 597.353 79.3004 532.324C69.3473 522.743 59.3129 513.297 49.2028 503.915L49.2083 503.845Z" fill="#93A378"/>
<path d="M391.342 512.734C333.918 459.315 274.854 407.887 224.283 347.764C157.394 268.23 159.742 93.2244 229.309 14.6684C253.079 -12.1545 285.537 -29.4958 317.76 -45.1947C323.898 -48.2103 330.729 -51.9486 332.416 -58.5649C335.127 -69.2348 323.081 -77.3551 312.87 -81.4088C277.574 -95.3854 239.395 -104.606 201.72 -100.007C120.835 -90.0781 60.4837 -7.40517 41.9623 66.3663C4.97664 213.631 61.6729 349.995 153.023 463.112C230.044 558.495 325.416 637.088 420.101 714.991C485.78 769.023 551.459 823.056 617.138 877.089C666.753 917.915 716.665 959.012 758.37 1007.87C797.295 1053.44 844.471 1123.93 852.45 1183.78C862.45 1258.38 837.091 1339.57 809.809 1407.92C802.635 1425.9 750.441 1509.99 756.908 1524.81C766.187 1546.11 822.373 1478.66 831.308 1468.83C936.463 1353.81 1000.09 1207.51 920.289 1059.37C848.353 925.834 738.428 831.892 626.381 733.932C555.76 672.196 489.004 606.242 421.434 541.213C411.481 531.632 401.446 522.186 391.336 512.804L391.342 512.734Z" fill="#93A378"/>
<path d="M733.475 521.621C676.051 468.202 616.987 416.774 566.415 356.65C499.526 277.117 501.874 102.111 571.442 23.5551C595.212 -3.26774 627.67 -20.6091 659.893 -36.308C666.031 -39.3235 672.862 -43.0619 674.548 -49.6782C677.26 -60.3481 665.213 -68.4684 655.002 -72.5221C619.706 -86.4987 581.528 -95.7198 543.853 -91.1206C462.968 -81.1914 402.616 1.48155 384.095 75.253C347.109 222.518 403.806 358.881 495.156 471.998C572.177 567.381 667.549 645.974 762.234 723.877C827.913 777.91 893.592 831.943 959.271 885.975C1008.89 926.802 1058.8 967.899 1100.5 1016.76C1139.43 1062.33 1186.6 1132.82 1194.58 1192.67C1204.58 1267.27 1179.22 1348.46 1151.94 1416.8C1144.77 1434.79 1092.57 1518.88 1099.04 1533.7C1108.32 1554.99 1164.51 1487.54 1173.44 1477.71C1278.6 1362.7 1342.22 1216.4 1262.42 1068.25C1190.49 934.721 1080.56 840.779 968.513 742.819C897.893 681.083 831.137 615.129 763.567 550.099C753.614 540.518 743.579 531.072 733.469 521.691L733.475 521.621Z" fill="#93A378"/>
<path d="M1075.61 530.509C1018.18 477.091 959.12 425.663 908.549 365.539C841.66 286.005 844.008 111 913.576 32.4438C937.345 5.62093 969.803 -11.7204 1002.03 -27.4193C1008.16 -30.4349 1015 -34.1732 1016.68 -40.7895C1019.39 -51.4594 1007.35 -59.5797 997.136 -63.6334C961.84 -77.61 923.661 -86.8311 885.986 -82.2319C805.101 -72.3027 744.75 10.3702 726.229 84.1417C689.243 231.407 745.939 367.77 837.289 480.887C914.31 576.27 1009.68 654.863 1104.37 732.766C1170.05 786.799 1235.73 840.831 1301.4 894.864C1351.02 935.69 1400.93 976.787 1442.64 1025.65C1481.56 1071.22 1528.74 1141.71 1536.72 1201.56C1546.72 1276.16 1521.36 1357.34 1494.08 1425.69C1486.9 1443.68 1434.71 1527.77 1441.17 1542.59C1450.45 1563.88 1506.64 1496.43 1515.57 1486.6C1620.73 1371.59 1684.35 1225.29 1604.55 1077.14C1532.62 943.61 1422.69 849.668 1310.65 751.707C1240.03 689.972 1173.27 624.017 1105.7 558.988C1095.75 549.407 1085.71 539.961 1075.6 530.58L1075.61 530.509Z" fill="#93A378"/>
<path d="M1417.74 539.4C1360.32 485.981 1301.26 434.553 1250.68 374.43C1183.8 294.896 1186.14 119.89 1255.71 41.3344C1279.48 14.5116 1311.94 -2.82976 1344.16 -18.5287C1350.3 -21.5442 1357.13 -25.2826 1358.82 -31.8989C1361.53 -42.5688 1349.48 -50.6891 1339.27 -54.7428C1303.98 -68.7194 1265.8 -77.9405 1228.12 -73.3413C1147.24 -63.4121 1086.89 19.2608 1068.36 93.0323C1031.38 240.297 1088.07 376.661 1179.43 489.778C1256.45 585.161 1351.82 663.754 1446.5 741.657C1512.18 795.689 1577.86 849.722 1643.54 903.755C1693.16 944.581 1743.07 985.678 1784.77 1034.54C1823.7 1080.11 1870.87 1150.6 1878.85 1210.45C1888.85 1285.05 1863.49 1366.23 1836.21 1434.58C1829.04 1452.57 1776.84 1536.66 1783.31 1551.48C1792.59 1572.77 1848.78 1505.32 1857.71 1495.49C1962.87 1380.48 2026.49 1234.18 1946.69 1086.03C1874.75 952.5 1764.83 858.558 1652.78 760.598C1582.16 698.862 1515.41 632.908 1447.84 567.879C1437.88 558.298 1427.85 548.852 1417.74 539.47L1417.74 539.4Z" fill="#93A378"/>
</g>
</g>
</svg>
