<svg width="155" height="460" viewBox="0 0 155 460" fill="none" xmlns="http://www.w3.org/2000/svg">
<path d="M63.2824 158.964C45.117 164.5 27.0726 159.997 13.9127 146.326C-1.63519 130.193 -1.67664 109.412 2.00631 88.4488C4.94831 71.7345 8.62028 54.6336 18.1021 40.5485C30.2794 22.4531 60.9189 -2.75279 83.8643 0.244132C102.59 2.69325 118.638 10.6544 130.811 25.4314C156.483 56.5998 158.371 95.8392 149.271 133.447C141.601 165.158 127.602 194.928 113.689 224.454C104.038 244.933 94.3875 265.413 84.7365 285.893C77.447 301.365 70.1169 316.937 65.6461 333.438C61.4692 348.831 58.1453 371.154 63.0415 386.447C69.1317 405.516 84.4802 422.131 98.8295 435.442C102.604 438.946 124.742 453.198 124.873 457.497C125.066 463.673 103.863 453.875 100.593 452.533C62.1898 436.894 30.2172 408.997 32.5471 364.29C34.4884 327.066 48.7694 286.688 65.498 253.947C88.2893 209.342 106.261 162.298 118.996 113.876C124.102 94.4498 117.013 72.3794 101.559 59.5732C92.5239 52.0897 80.3586 47.6889 68.8588 50.1001C48.0302 54.4645 25.3239 95.6932 49.2595 109.064C59.8775 114.99 71.4133 115.054 77.1019 127.958C84.6912 145.172 76.2284 155.021 63.2987 158.955L63.2824 158.964Z" fill="#354443"/>
</svg>
