<svg width="116" height="106" viewBox="0 0 116 106" fill="none" xmlns="http://www.w3.org/2000/svg">
<path d="M57.3809 53.6242C59.2172 61.5992 64.7952 67.3752 72.7609 69.3599C82.1657 71.7083 89.9732 67.2661 97.0471 61.393C102.686 56.7083 108.313 51.6679 111.556 45.1036C115.723 36.6719 118.581 19.8167 112.512 11.8862C104.66 1.63963 90.2732 -4.29812 78.5983 3.74149C77.2403 4.6752 75.9796 5.81909 75.2297 7.28635C74.4797 8.75361 74.3176 10.5806 75.108 12.0236C75.9877 13.6243 77.7957 14.4408 79.4861 15.1481C86.3248 18.018 94.4689 20.3502 97.0349 28.1958C99.8847 36.9145 89.3044 54.2427 79.1294 48.1675C74.6175 45.4714 72.1082 41.1748 66.0397 41.8174C57.9443 42.6744 56.0715 47.9492 57.3809 53.6242Z" fill="#9AC1BF"/>
<path d="M58.6191 89.6242C56.7828 97.5992 51.2048 103.375 43.2391 105.36C33.8343 107.708 26.0268 103.266 18.9529 97.393C13.3141 92.7083 7.68747 87.6679 4.44445 81.1036C0.277164 72.6719 -2.58075 55.8167 3.48775 47.8862C11.3399 37.6396 25.7268 31.7019 37.4017 39.7415C38.7597 40.6752 40.0204 41.8191 40.7703 43.2864C41.5203 44.7536 41.6824 46.5806 40.892 48.0236C40.0123 49.6243 38.2043 50.4408 36.5139 51.1481C29.6752 54.018 21.5311 56.3502 18.9651 64.1958C16.1153 72.9145 26.6956 90.2427 36.8706 84.1675C41.3825 81.4714 43.8918 77.1748 49.9603 77.8174C58.0557 78.6744 59.9285 83.9492 58.6191 89.6242Z" fill="#9AC1BF"/>
</svg>
