<svg width="13" height="10" viewBox="0 0 13 10" fill="none" xmlns="http://www.w3.org/2000/svg">
<path d="M2.69019 9.10567C2.68288 9.10558 2.67611 9.10574 2.66866 9.10526C2.64795 9.10457 2.62575 9.10222 2.60966 9.0899C2.57463 9.06362 2.58486 9.01034 2.59955 8.96862C2.75564 8.52544 3.05753 8.18017 3.3305 7.79866C3.60348 7.41714 3.86931 7.01367 4.0848 6.59226C4.4115 5.95438 4.76304 5.00818 4.683 4.30464C4.58386 3.42752 4.04831 2.58576 3.52743 1.89555C3.39042 1.71389 2.52974 0.922658 2.56292 0.73448C2.61044 0.464118 3.46981 1.05424 3.60385 1.13789C5.1795 2.11502 6.35612 3.57618 5.84566 5.50449C5.82333 5.58856 5.79992 5.67214 5.77461 5.7555C5.63391 6.22345 5.45951 6.69259 5.13169 7.07999C4.84308 7.42154 4.53417 7.74786 4.20756 8.05588C3.9726 8.27765 3.72818 8.49047 3.47551 8.69263C3.24182 8.87993 3.01363 9.10285 2.68978 9.1045L2.69019 9.10567Z" fill="#F6EDD0"/>
<path d="M7.87036 9.10567C7.86305 9.10558 7.85628 9.10574 7.84884 9.10526C7.82812 9.10457 7.80592 9.10222 7.78983 9.0899C7.75481 9.06362 7.76504 9.01034 7.77972 8.96862C7.93582 8.52544 8.23771 8.18017 8.51068 7.79866C8.78365 7.41714 9.04948 7.01367 9.26498 6.59226C9.59168 5.95438 9.94321 5.00818 9.86317 4.30464C9.76403 3.42752 9.22849 2.58576 8.70761 1.89555C8.5706 1.71389 7.70991 0.922658 7.7431 0.73448C7.79062 0.464118 8.64998 1.05424 8.78402 1.13789C10.3597 2.11502 11.5363 3.57618 11.0258 5.50449C11.0035 5.58856 10.9801 5.67214 10.9548 5.7555C10.8141 6.22345 10.6397 6.69259 10.3119 7.07999C10.0233 7.42154 9.71435 7.74786 9.38774 8.05588C9.15278 8.27765 8.90835 8.49047 8.65569 8.69263C8.422 8.87993 8.19381 9.10285 7.86996 9.1045L7.87036 9.10567Z" fill="#F6EDD0"/>
</svg>
