<svg width="13" height="10" viewBox="0 0 13 10" fill="none" xmlns="http://www.w3.org/2000/svg">
<path d="M9.67036 9.10567C9.67767 9.10558 9.68444 9.10574 9.69189 9.10526C9.7126 9.10457 9.7348 9.10222 9.75089 9.0899C9.78592 9.06362 9.77569 9.01034 9.761 8.96862C9.60491 8.52544 9.30302 8.18017 9.03005 7.79866C8.75707 7.41714 8.49124 7.01367 8.27575 6.59226C7.94905 5.95438 7.59751 5.00818 7.67755 4.30464C7.77669 3.42752 8.31224 2.58576 8.83312 1.89555C8.97013 1.71389 9.83081 0.922658 9.79763 0.73448C9.75011 0.464118 8.89074 1.05424 8.7567 1.13789C7.18104 2.11502 6.00442 3.57618 6.51489 5.50449C6.53722 5.58856 6.56063 5.67214 6.58594 5.7555C6.72663 6.22345 6.90104 6.69259 7.22886 7.07999C7.51747 7.42154 7.82638 7.74786 8.15299 8.05588C8.38795 8.27765 8.63237 8.49047 8.88504 8.69263C9.11873 8.87993 9.34692 9.10285 9.67077 9.1045L9.67036 9.10567Z" fill="#F6EDD0"/>
<path d="M4.49019 9.10567C4.4975 9.10558 4.50427 9.10574 4.51171 9.10526C4.53242 9.10457 4.55463 9.10222 4.57072 9.0899C4.60574 9.06362 4.59551 9.01034 4.58082 8.96862C4.42473 8.52544 4.12284 8.18017 3.84987 7.79866C3.5769 7.41714 3.31107 7.01367 3.09557 6.59226C2.76887 5.95438 2.41734 5.00818 2.49738 4.30464C2.59652 3.42752 3.13206 2.58576 3.65294 1.89555C3.78995 1.71389 4.65063 0.922658 4.61745 0.73448C4.56993 0.464118 3.71057 1.05424 3.57653 1.13789C2.00087 2.11502 0.824249 3.57618 1.33472 5.50449C1.35705 5.58856 1.38046 5.67214 1.40577 5.7555C1.54646 6.22345 1.72087 6.69259 2.04868 7.07999C2.3373 7.42154 2.6462 7.74786 2.97281 8.05588C3.20777 8.27765 3.45219 8.49047 3.70486 8.69263C3.93855 8.87993 4.16674 9.10285 4.49059 9.1045L4.49019 9.10567Z" fill="#F6EDD0"/>
</svg>
