<svg width="24" height="25" viewBox="0 0 24 25" fill="none" xmlns="http://www.w3.org/2000/svg">
<path d="M20.5998 22.2846C20.6177 22.2809 20.6343 22.2781 20.6524 22.2733C20.7028 22.2618 20.7562 22.2453 20.7904 22.2063C20.8651 22.1228 20.8175 21.9921 20.7638 21.8929C20.1935 20.8393 19.3074 20.1038 18.4769 19.2624C17.6463 18.421 16.8239 17.5204 16.1173 16.5503C15.0464 15.0821 13.784 12.8411 13.6819 11.0131C13.5531 8.73438 14.5085 6.33884 15.4923 4.33587C15.751 3.80874 17.5246 1.3877 17.3635 0.924626C17.1325 0.259234 15.2769 2.16794 14.9839 2.44428C11.5373 5.67709 9.27352 9.95238 11.3416 14.6169C11.432 14.8202 11.5248 15.0218 11.6221 15.2219C12.1652 16.3459 12.7914 17.4569 13.7588 18.2873C14.6108 19.0196 15.506 19.7035 16.4368 20.3325C17.1066 20.7854 17.7957 21.2111 18.5005 21.6057C19.1524 21.9716 19.8061 22.4306 20.6003 22.2814L20.5998 22.2846Z" fill="#2D291F"/>
<path d="M1.4002 1.98789C1.38232 1.99158 1.36567 1.99438 1.34763 1.99913C1.29716 2.01069 1.24376 2.0272 1.20956 2.06618C1.13487 2.14963 1.18253 2.28034 1.2362 2.37956C1.8065 3.4332 2.69257 4.16867 3.52314 5.01005C4.3537 5.85143 5.17608 6.75208 5.88271 7.72218C6.95359 9.1904 8.216 11.4314 8.31807 13.2594C8.44692 15.5381 7.49145 17.9336 6.50768 19.9366C6.24896 20.4637 4.47539 22.8848 4.63646 23.3478C4.86749 24.0132 6.72306 22.1045 7.01605 21.8282C10.4627 18.5954 12.7265 14.3201 10.6584 9.65557C10.568 9.45222 10.4752 9.25066 10.3779 9.05055C9.83482 7.92656 9.20862 6.81552 8.24119 5.98515C7.38922 5.25287 6.49401 4.56895 5.56316 3.94C4.89345 3.48706 4.20433 3.06136 3.49954 2.66672C2.84755 2.30088 2.19393 1.84181 1.3997 1.99106L1.4002 1.98789Z" fill="#2D291F"/>
</svg>
