<svg width="1175" height="612" viewBox="0 0 1175 612" fill="none" xmlns="http://www.w3.org/2000/svg">
<path opacity="0.2" d="M442.884 338.688C384.927 336.609 327.153 332.632 269.273 337.642C192.711 344.274 102.426 437.037 97.7218 514.493C96.1235 540.949 104.026 566.987 112.665 592.044C114.297 596.83 115.914 602.356 113.336 606.698C109.174 613.697 98.6294 611.646 91.1709 608.428C65.4082 597.287 40.6248 582.152 23.3315 560.051C-13.7667 512.574 -2.09048 437.783 26.8017 389.514C84.4704 293.153 185.42 251.468 292.332 240.058C382.479 230.432 473.441 239.182 563.683 247.933C626.277 254.006 688.871 260.079 751.465 266.153C798.755 270.736 846.341 275.333 893.696 271.578C937.876 268.092 999.404 255.884 1034.87 228.751C1079.11 194.959 1108.3 139.239 1129.78 89.2282C1135.43 76.0701 1152.12 4.80097 1163.25 0.430667C1179.23 -5.85641 1173.34 58.7968 1172.87 68.6078C1167.71 183.737 1124.47 293.519 1005.28 329.29C897.844 361.528 791.247 353.199 681.44 345.862C612.234 341.234 542.842 340.834 473.509 339.523C463.295 339.332 453.109 339.027 442.917 338.648L442.884 338.688Z" fill="#D58761"/>
</svg>
