<svg width="462" height="206" viewBox="0 0 462 206" fill="none" xmlns="http://www.w3.org/2000/svg">
<path d="M173.635 95.4484C151.494 97.7835 129.473 100.841 107.173 100.459C77.6762 99.9523 40.6473 66.8241 36.7986 37.2857C35.4874 27.1965 37.8259 17.0147 40.4721 7.18942C40.9709 5.31318 41.444 3.15384 40.3419 1.55936C38.5631 -1.01032 34.5789 0.0549134 31.8074 1.48525C22.2351 6.43608 13.1436 12.8906 7.10457 21.8138C-5.8487 40.9813 0.599598 69.3141 12.9403 87.0322C37.5729 122.404 77.3362 135.688 118.583 137.219C153.362 138.511 187.968 132.745 222.297 126.997C246.109 123.009 269.921 119.021 293.733 115.033C311.723 112.022 329.827 108.998 348.062 109.179C365.074 109.34 388.961 112.382 403.261 121.831C421.096 133.598 433.749 154.162 443.296 172.744C445.809 177.633 454.082 204.484 458.46 205.862C464.749 207.846 460.782 183.242 460.344 179.497C455.324 135.543 435.864 94.6478 389.272 84.1137C347.273 74.6203 306.669 80.6407 264.808 86.3663C238.426 89.9763 211.861 91.9723 185.342 94.3152C181.436 94.6599 177.543 95.0472 173.649 95.4627L173.635 95.4484Z" fill="#9AC1BF"/>
</svg>
