<svg width="372" height="186" viewBox="0 0 372 186" fill="none" xmlns="http://www.w3.org/2000/svg">
<path d="M90.06 84.4056C83.12 85.2256 74.92 83.1456 69.14 83.3556C63.62 83.5456 56.47 89.9556 58.2 97.2756C58.7 99.3856 60.04 101.216 61.67 102.646C65.18 105.726 69.92 107.036 74.57 107.566C103.56 110.906 125.26 85.9756 125.95 57.9156C127.08 12.0856 60.94 5.54562 29.1 19.1056C19.39 23.2456 10.45 29.7356 0 31.3056C1.88 24.6456 7.83 20.0056 13.76 16.4156C46.12 -3.18438 102.53 -8.83438 131.83 19.7256C155.14 42.4356 147.05 82.5856 126.31 104.266C116.33 114.686 102.84 121.806 88.53 123.616C67.73 126.246 38.78 116.686 36.05 92.6156C33.33 68.5756 60.2 51.8056 81.78 54.4156C87.63 55.1256 93.58 56.9956 97.78 61.1256C101.98 65.2556 103.96 72.0156 101.27 77.2556C98.84 81.9956 94.73 83.8556 90.06 84.4056Z" fill="#2D291F"/>
<path d="M215.97 99.3158C218.57 110.626 226.45 118.816 237.71 121.626C251.01 124.956 262.05 118.656 272.04 110.326C280.01 103.686 287.97 96.5358 292.55 87.2358C298.44 75.2858 302.48 51.3858 293.9 40.1358C286.9 30.9658 277.78 24.8758 266.24 22.9258C241.89 18.8058 220.49 29.7458 203.3 46.0058C188.81 59.7158 177.28 76.1858 165.86 92.5358C157.93 103.876 150.01 115.216 142.08 126.556C136.09 135.126 130.06 143.746 122.67 151.136C115.77 158.026 104.95 166.576 95.3401 168.646C83.3701 171.216 69.8801 168.146 58.4401 164.586C55.4301 163.646 41.1301 156.256 38.8101 157.496C35.4801 159.266 47.1301 167.526 48.8401 168.856C68.8401 184.446 93.3801 192.896 116.39 178.066C135.55 165.716 152.62 145.866 164.9 127.046C181.62 101.406 201.11 77.5758 222.92 56.1058C231.67 47.4858 245.54 44.5358 257.04 48.8258C263.76 51.3358 269.8 56.4458 272.03 63.2658C276.06 75.6258 261.1 100.196 246.71 91.5858C240.33 87.7658 236.78 81.6658 228.2 82.5758C216.76 83.7958 214.11 91.2658 215.96 99.3158H215.97Z" fill="#2D291F"/>
<path d="M347.91 87.2659C370.79 94.2859 382.25 54.9259 359.75 50.3159C337.58 45.7759 324.41 80.0459 347.91 87.2659Z" fill="#2D291F"/>
</svg>
