<svg width="1282" height="166" viewBox="0 0 1282 166" fill="none" xmlns="http://www.w3.org/2000/svg">
<g clip-path="url(#clip0_2025_262)">
<path d="M80.4023 75.4172C74.2065 76.1499 66.8859 74.2912 61.7257 74.4789C56.7976 74.6487 50.4144 80.3765 51.9589 86.9175C52.4052 88.8029 53.6015 90.4382 55.0567 91.716C58.1904 94.4682 62.4221 95.6388 66.5734 96.1124C92.4546 99.097 111.828 76.8201 112.444 51.7463C113.452 10.7936 54.405 4.94959 25.9794 17.0665C17.3107 20.7659 9.32938 26.5652 0 27.9682C1.6784 22.0169 6.99034 17.8707 12.2844 14.6628C41.1743 -2.85135 91.5351 -7.90007 117.693 17.6205C138.503 37.9137 131.281 73.7908 112.765 93.1636C103.855 102.475 91.8118 108.837 79.0364 110.454C60.4669 112.804 34.6214 104.262 32.1841 82.7534C29.7558 61.2718 53.7444 46.2865 73.0102 48.6187C78.2329 49.2532 83.5448 50.9242 87.2945 54.6147C91.0441 58.3051 92.8117 64.3457 90.4102 69.0281C88.2408 73.2636 84.5715 74.9257 80.4023 75.4172Z" fill="#F6EDD0"/>
<path d="M192.81 88.7409C195.131 98.8472 202.166 106.166 212.219 108.677C224.093 111.652 233.949 106.023 242.867 98.5792C249.983 92.6458 257.089 86.2567 261.178 77.9465C266.436 67.2682 270.043 45.9117 262.383 35.8589C256.134 27.6648 247.992 22.2229 237.689 20.4804C215.951 16.7989 196.846 26.5746 181.499 41.1042C168.563 53.3552 158.269 68.0724 148.074 82.6824C140.994 92.8156 133.924 102.949 126.844 113.082C121.496 120.74 116.113 128.443 109.515 135.046C103.355 141.203 93.6956 148.843 85.1161 150.693C74.4297 152.989 62.3863 150.246 52.1731 147.065C49.4859 146.225 36.7194 139.621 34.6482 140.729C31.6753 142.311 42.076 149.692 43.6026 150.88C61.4579 164.811 83.3663 172.362 103.909 159.11C121.014 148.074 136.254 130.337 147.217 113.52C162.144 90.6085 179.544 69.3145 199.015 50.1294C206.827 42.4267 219.209 39.7907 229.476 43.6241C235.475 45.867 240.868 50.4332 242.859 56.5274C246.456 67.572 233.101 89.5272 220.254 81.8335C214.558 78.4201 211.389 72.9692 203.729 73.7824C193.516 74.8725 191.15 81.5476 192.801 88.7409H192.81Z" fill="#F6EDD0"/>
<path d="M310.601 77.9723C331.028 84.2452 341.259 49.074 321.172 44.9546C301.379 40.8978 289.622 71.5207 310.601 77.9723Z" fill="#F6EDD0"/>
<path d="M395.369 95.3526C394.334 98.1852 393.646 100.428 393.316 102.081C392.986 103.734 392.914 104.985 393.102 105.834C393.2 106.871 393.53 107.532 394.093 107.818H385.326C385.986 107.532 386.745 106.871 387.593 105.834C388.254 104.985 389.058 103.734 389.995 102.081C390.941 100.428 391.977 98.1852 393.111 95.3526L426.786 8.69336H432.303L465.407 95.3526C466.442 98.0869 467.433 100.258 468.38 101.867C469.317 103.475 470.121 104.744 470.781 105.691C471.629 106.728 472.379 107.443 473.049 107.818H453.953C454.515 107.344 454.845 106.594 454.944 105.548C455.131 104.61 455.104 103.332 454.872 101.724C454.631 100.115 453.997 97.9975 452.962 95.3526L446.168 77.9367H402.172L395.378 95.3526H395.369ZM402.869 76.373H445.453L424.661 20.5869L402.878 76.373H402.869Z" fill="#F6EDD0"/>
<path d="M477.986 107.808C478.548 107.433 479.021 106.727 479.396 105.681C479.771 104.734 480.102 103.483 480.387 101.928C480.673 100.374 480.816 98.2737 480.816 95.6287V47.7687C480.816 45.6956 480.673 44.0425 480.387 42.8093C480.102 41.5851 479.771 40.5933 479.396 39.8337C479.021 39.0831 478.548 38.5112 477.986 38.1359L493.261 33.7484V96.6206C493.261 99.0779 492.975 101.035 492.413 102.5C491.85 103.966 490.949 105.101 489.726 105.896C488.503 106.7 486.922 107.218 484.985 107.451C483.048 107.683 480.718 107.808 477.986 107.808ZM526.65 107.808C527.025 106.772 527.615 105.378 528.418 103.635C529.221 101.893 529.623 99.2209 529.623 95.6377V54.5777C529.623 51.7451 529.177 49.2431 528.275 47.0717C527.382 44.9003 526.15 43.1042 524.597 41.6923C523.044 40.2805 521.294 39.1903 519.365 38.4308C517.428 37.6802 515.384 37.2959 513.214 37.2959C511.232 37.2959 509.232 37.6534 507.206 38.3593C505.179 39.0652 503.269 40.1286 501.474 41.5404C499.68 42.9612 498.126 44.7305 496.805 46.8483C495.484 48.975 494.448 51.4949 493.689 54.4258C494.252 50.7443 495.314 47.6078 496.877 45.0075C498.439 42.4072 500.296 40.2626 502.465 38.5648C504.635 36.867 507.036 35.616 509.679 34.8118C512.321 34.0076 515.009 33.6055 517.741 33.6055C520.758 33.6055 523.731 34.0523 526.65 34.9548C529.57 35.8573 532.168 37.153 534.435 38.8508C536.703 40.5486 538.515 42.577 539.881 44.936C541.247 47.2951 541.934 49.9848 541.934 53.005V95.7717C541.934 97.8537 542.077 99.623 542.354 101.08C542.64 102.545 542.97 103.796 543.345 104.833C543.72 106.057 544.193 107.049 544.765 107.808H526.659H526.65Z" fill="#F6EDD0"/>
<path d="M568.387 93.0825C568.387 96.1028 569.003 98.2027 570.226 99.3822C571.449 100.562 572.771 101.151 574.19 101.151C575.226 101.151 576.217 100.892 577.163 100.374C578.1 99.8558 578.716 99.266 579.002 98.6048C579.002 100.866 577.913 102.974 575.743 104.905C573.574 106.844 570.842 107.809 567.539 107.809C566.977 107.809 566.057 107.719 564.78 107.523C563.513 107.335 562.236 106.772 560.959 105.825C559.683 104.878 558.549 103.394 557.567 101.366C556.576 99.3375 556.085 96.5317 556.085 92.9395V35.3127H546.041V33.7578H556.085V30.2193C556.085 28.1462 555.942 26.3947 555.665 24.9829C555.379 23.571 555.049 22.3915 554.674 21.4443C554.201 20.3095 553.683 19.4159 553.121 18.7547L568.396 14.3672V33.7668H580.422V35.3216H568.396V93.0914L568.387 93.0825Z" fill="#F6EDD0"/>
<path d="M686.312 44.3552C685.339 44.936 684.357 45.5347 683.357 46.1424C679.304 48.6444 674.983 51.1017 670.412 53.5055C665.832 55.9181 660.77 57.6338 655.199 58.6703V95.6287C655.199 97.7108 655.36 99.7392 655.557 101.803C655.753 103.868 656.244 105.288 656.789 107.218C656.851 107.451 656.905 107.728 656.753 107.915C656.601 108.094 656.333 108.103 656.101 108.094C652.932 107.951 648.638 107.737 645.933 105.896C644.754 105.092 643.924 103.912 643.46 102.357C642.986 100.803 642.754 98.7473 642.754 96.2006V89.8294C641.808 92.3761 640.415 94.7351 638.585 96.9065C636.746 99.0779 634.55 100.963 632.005 102.572C629.461 104.18 626.631 105.449 623.515 106.396C620.399 107.344 617.052 107.808 613.472 107.808C608.472 107.808 603.928 107.218 599.821 106.039C595.715 104.859 592.179 103.305 589.215 101.365C586.242 99.4354 583.93 97.1657 582.278 94.5654C580.627 91.974 579.806 89.2575 579.806 86.4249C579.806 81.8944 580.654 78.1682 582.35 75.2373C584.046 72.3153 586.385 69.9294 589.349 68.0886C596.411 63.719 604.767 62.7987 612.74 61.3421C620.158 59.9839 627.006 56.5615 633.746 53.1748C635.094 52.4957 636.46 51.8077 637.55 50.7532C640.362 48.0278 640.451 43.3455 637.871 40.4681C634.621 36.8402 629.595 35.062 622.801 35.1603C619.873 35.1603 617.052 35.6339 614.311 36.5811C609.454 38.261 605.41 41.9157 601.973 45.7045C600.455 47.3755 599.08 49.3146 598.304 51.4502C598.089 52.0311 598.054 53.2374 597.572 53.6663C596.831 54.3186 595.268 53.7735 594.447 53.5591C592.876 53.157 590.795 52.3438 590.804 50.4584C590.813 48.3495 592.617 45.9011 593.92 44.391C596.456 41.4421 599.705 38.9223 603.267 37.3585C606.383 35.9913 609.633 35.0263 613.025 34.4544C616.418 33.8914 619.676 33.6055 622.783 33.6055C628.631 33.6055 633.603 34.1684 637.71 35.3033C641.817 36.4381 645.138 38.0197 647.682 40.0482C650.227 42.0766 652.093 44.5071 653.271 47.3398C653.807 48.6265 654.342 50.0562 654.53 51.4413C654.726 52.8889 654.762 53.9701 656.396 54.122C658.029 54.2739 660.145 53.6216 661.752 53.1659C664.984 52.2366 668.885 50.6549 671.287 48.2065C673.296 46.1513 672.59 43.2114 671.591 40.8256C671.117 39.6907 670.644 38.7525 670.171 37.9929C672.385 37.3585 674.608 36.7151 676.822 36.0807C679.34 35.3569 682.732 33.6859 685.348 33.7395C685.402 35.3122 684.902 37.1798 686.393 38.3146C687.66 39.2797 689.464 38.7704 690.964 38.2163C696.534 36.17 702.052 33.8914 708.087 33.8914C711.006 33.8021 713.675 33.9897 716.077 34.4544C718.479 34.928 720.63 35.7322 722.514 36.8581C726.165 39.0563 728.629 42.6664 728.647 47.0091C728.647 48.4478 728.263 50.0741 727.022 50.7979C726.174 51.2894 725.13 51.2536 724.148 51.2C723.103 51.1375 722.014 51.066 721.13 50.512C718.791 49.0376 717.88 44.9986 716.354 42.8004C715.175 41.1026 713.684 39.6639 711.899 38.4844C710.104 37.3049 707.935 36.7151 705.391 36.7151C701.9 36.7151 698.365 37.6623 694.785 39.5478C692.08 40.9686 689.249 42.5681 686.277 44.3373L686.312 44.3552ZM615.596 105.404C620.783 105.404 625.095 104.368 628.541 102.286C631.988 100.213 634.764 97.5946 636.889 94.4313C639.014 91.2681 640.522 87.7742 641.415 83.9497C642.308 80.1251 642.754 76.4704 642.754 72.9765L642.469 60.52C638.13 61.2796 633.862 61.914 629.666 62.4323C625.47 62.9506 621.507 63.4957 617.784 64.0586C614.061 64.6216 610.642 65.3543 607.526 66.2568C604.41 67.1504 601.723 68.4282 599.464 70.0813C597.205 71.7344 595.429 73.8344 594.161 76.3811C592.893 78.9278 592.251 82.1357 592.251 86.0138C592.251 88.9448 592.84 91.6076 594.018 94.0113C595.197 96.4151 596.822 98.4703 598.902 100.168C600.973 101.866 603.455 103.171 606.33 104.064C609.204 104.967 612.293 105.413 615.596 105.413V105.404ZM685.482 95.6287C685.482 97.7018 685.625 99.4979 685.902 101.008C686.187 102.518 686.518 103.796 686.893 104.833C687.268 106.057 687.741 107.049 688.303 107.808H670.198C670.76 106.959 671.233 105.967 671.617 104.833C671.992 103.796 672.323 102.518 672.608 101.008C672.894 99.4979 673.028 97.7018 673.028 95.6287V58.0448C675.197 57.0083 677.34 55.9717 679.465 54.9262C681.59 53.8897 683.589 52.6566 685.482 51.2447V95.6287Z" fill="#F6EDD0"/>
<path d="M774.589 108.096C775.151 107.247 775.624 106.255 776.008 105.121C776.383 104.084 776.714 102.806 776.999 101.296C777.285 99.7859 777.419 97.9898 777.419 95.9167V21.4459C777.419 19.2745 777.276 17.4337 776.999 15.9236C776.714 14.4134 776.383 13.1356 776.008 12.0991C775.633 10.8749 775.16 9.82937 774.589 8.98047H819.861C825.235 8.98047 830.19 9.66852 834.716 11.0357C839.243 12.4029 843.135 14.3598 846.385 16.9154C849.643 19.4621 852.161 22.5539 853.955 26.1908C855.75 29.8276 856.643 33.9113 856.643 38.4417C856.643 48.4498 853.322 56.215 846.67 61.7373C840.019 67.2596 829.431 70.0208 814.915 70.0208H789.873V96.0775C789.873 98.1506 790.016 99.9288 790.292 101.385C790.578 102.851 790.908 104.102 791.283 105.138C791.658 106.363 792.132 107.354 792.694 108.114H774.589V108.096ZM789.873 67.1792H808.121C812.933 67.1792 817.504 66.8039 821.843 66.0444C826.182 65.2938 830.003 63.873 833.306 61.7999C836.609 59.7268 839.225 56.8226 841.153 53.0875C843.082 49.3613 844.055 44.5181 844.055 38.5758C844.055 33.7594 843.18 29.6757 841.439 26.3248C839.689 22.9739 837.404 20.2842 834.574 18.2558C831.743 16.2274 828.556 14.744 825.021 13.7969C821.486 12.8497 817.923 12.3761 814.343 12.3761H790.721C790.534 13.1356 790.346 14.4313 790.159 16.2721C789.971 18.1128 789.873 19.8374 789.873 21.4369V67.1703V67.1792Z" fill="#F6EDD0"/>
<path d="M879.14 96.0584C879.14 98.1315 879.283 99.9097 879.56 101.366C879.846 102.832 880.176 104.083 880.551 105.119C880.926 106.344 881.399 107.335 881.97 108.095H863.865C864.428 107.246 864.901 106.254 865.285 105.119C865.66 104.083 865.99 102.805 866.276 101.295C866.561 99.7846 866.695 97.9885 866.695 95.9154V50.7451C866.695 48.672 866.552 46.8759 866.276 45.3657C865.99 43.8556 865.66 42.5867 865.285 41.5412C864.91 40.317 864.436 39.2805 863.865 38.4226L879.14 34.0352V96.0584ZM910.824 54.0066C911.012 51.0846 910.798 48.5558 910.191 46.4291C909.575 44.3024 908.709 42.5867 907.575 41.2642C906.441 39.9417 905.102 38.9499 903.54 38.2886C901.986 37.6274 900.352 37.2967 898.656 37.2967C896.674 37.2967 894.648 37.6988 892.576 38.5031C890.496 39.3073 888.568 40.46 886.773 41.9701C884.979 43.4803 883.452 45.2943 882.176 47.421C880.908 49.5477 880.033 51.9782 879.56 54.7126C880.033 51.031 881.095 47.841 882.747 45.1513C884.399 42.4616 886.381 40.2455 888.693 38.4941C891.005 36.7517 893.55 35.447 896.335 34.5981C899.111 33.7492 901.87 33.3203 904.611 33.3203C906.878 33.3203 909.021 33.6063 911.048 34.1692C913.074 34.7322 914.869 35.5632 916.422 36.6444C917.976 37.7256 919.208 39.075 920.1 40.6834C920.993 42.2918 921.448 44.1326 921.448 46.2057C921.448 48.2788 920.431 50.2179 918.404 51.728C916.377 53.2382 913.851 53.9977 910.833 53.9977L910.824 54.0066ZM984.826 96.0584C984.826 98.8017 984.968 100.964 985.245 102.573C985.531 104.181 985.861 105.405 986.236 106.254C986.611 107.201 987.084 107.809 987.647 108.095C984.719 108.095 982.272 107.979 980.29 107.737C978.309 107.505 976.728 107.005 975.55 106.254C974.371 105.504 973.541 104.342 973.077 102.787C972.604 101.232 972.372 99.177 972.372 96.6303V90.1161C971.425 92.6628 970.033 95.0219 968.202 97.1933C966.363 99.3647 964.167 101.25 961.623 102.859C959.078 104.467 956.248 105.736 953.133 106.683C950.017 107.63 946.669 108.104 943.089 108.104C938.089 108.104 933.545 107.541 929.439 106.406C925.332 105.271 921.797 103.716 918.833 101.733C915.86 99.7489 913.574 97.4613 911.967 94.861C910.36 92.2697 909.566 89.5532 909.566 86.7205C909.566 81.1535 910.976 76.6946 913.806 73.3347C916.636 69.9838 920.199 67.3388 924.484 65.4087C928.778 63.4786 933.492 62.0846 938.634 61.2357C943.776 60.3868 948.651 59.6987 953.275 59.1805C957.891 58.6622 961.926 58.1171 965.372 57.5541C968.818 56.9912 971.05 56.044 972.095 54.7215C971.434 56.3299 969.738 57.5273 967.006 58.3316C964.274 59.1358 961.043 59.8864 957.32 60.6012C953.597 61.3072 949.66 62.1382 945.508 63.0765C941.357 64.0236 937.536 65.3908 934.045 67.1869C930.555 68.983 927.653 71.4135 925.341 74.4785C923.029 77.5435 921.877 81.5378 921.877 86.4435C921.877 89.3745 922.466 92.0195 923.645 94.3696C924.823 96.7286 926.448 98.757 928.528 100.455C930.599 102.153 933.081 103.457 935.956 104.351C938.83 105.244 941.919 105.691 945.223 105.691C949.374 105.691 953.124 104.941 956.471 103.422C959.819 101.911 962.667 99.9276 965.033 97.4703C967.39 95.0129 969.202 92.2339 970.479 89.1153C971.747 85.9967 972.389 82.8424 972.389 79.6255V55.1326C972.389 49.2796 970.907 44.5347 967.935 40.8979C964.962 37.261 959.891 35.447 952.731 35.447C950.16 35.447 946.562 35.4917 944.214 36.707C942.607 37.538 941.562 39.1018 940.839 40.7102C940.116 42.3186 939.563 44.0522 939.232 45.8036C939.072 46.6525 939.089 47.5997 938.848 48.4218C938.607 49.2439 938.429 50.1553 938.215 51.0221C938.125 51.3885 938.027 51.7638 937.84 52.0855C937.652 52.4071 937.366 52.702 937 52.8092C936.733 52.8897 936.447 52.8629 936.17 52.8271C934.643 52.6305 933.17 52.0497 931.912 51.1651C931.447 50.8344 930.983 50.5038 930.51 50.1732C930.278 50.0124 930.046 49.8426 929.876 49.6281C929.278 48.8864 929.662 48.1448 930.073 47.4567C930.51 46.724 930.974 46.0002 931.465 45.2943C933.804 41.9523 936.652 39.0035 940.312 37.1359C944.607 34.9466 949.481 34.0441 954.284 34.0441C960.507 34.0441 965.604 34.7322 969.559 36.0993C973.523 37.4665 976.63 39.2894 978.898 41.5502C981.165 43.8109 982.719 46.4112 983.567 49.3422C984.415 52.2731 984.844 55.3381 984.844 58.546V96.0674L984.826 96.0584ZM1120.27 96.0584C1120.27 98.8017 1120.41 100.964 1120.69 102.573C1120.97 104.181 1121.3 105.405 1121.68 106.254C1122.05 107.201 1122.53 107.809 1123.09 108.095C1120.16 108.095 1117.71 107.979 1115.73 107.737C1113.75 107.505 1112.17 107.005 1110.99 106.254C1109.81 105.504 1108.98 104.342 1108.52 102.787C1108.04 101.232 1107.81 99.177 1107.81 96.6303V90.1161C1106.87 92.6628 1105.47 95.0219 1103.64 97.1933C1101.8 99.3647 1099.61 101.25 1097.06 102.859C1094.52 104.467 1091.69 105.736 1088.57 106.683C1085.46 107.63 1082.11 108.104 1078.53 108.104C1073.53 108.104 1068.99 107.541 1064.88 106.406C1060.77 105.271 1057.24 103.716 1054.27 101.733C1051.3 99.7489 1049.02 97.4613 1047.41 94.861C1045.8 92.2697 1045.01 89.5532 1045.01 86.7205C1045.01 81.1535 1046.42 76.6946 1049.25 73.3347C1052.08 69.9838 1055.64 67.3388 1059.92 65.4087C1064.22 63.4786 1068.93 62.0846 1074.08 61.2357C1079.22 60.3868 1084.09 59.6987 1088.72 59.1805C1093.33 58.6622 1097.37 58.1171 1100.81 57.5541C1104.26 56.9912 1106.49 56.044 1107.54 54.7215C1106.88 56.3299 1105.18 57.5273 1102.45 58.3316C1099.72 59.1358 1096.48 59.8864 1092.76 60.6012C1089.04 61.3072 1085.1 62.1382 1080.95 63.0765C1076.8 64.0236 1072.98 65.3908 1069.49 67.1869C1066 68.983 1063.09 71.4135 1060.78 74.4785C1058.47 77.5435 1057.32 81.5378 1057.32 86.4435C1057.32 89.3745 1057.91 92.0195 1059.09 94.3696C1060.26 96.7286 1061.89 98.757 1063.97 100.455C1066.04 102.153 1068.52 103.457 1071.4 104.351C1074.27 105.244 1077.36 105.691 1080.66 105.691C1084.82 105.691 1088.56 104.941 1091.91 103.422C1095.26 101.911 1098.11 99.9276 1100.47 97.4703C1102.83 95.0129 1104.64 92.2339 1105.92 89.1153C1107.19 85.9967 1107.83 82.8424 1107.83 79.6255V55.1326C1107.83 49.2796 1106.35 44.5347 1103.38 40.8979C1100.4 37.261 1095.33 35.447 1088.17 35.447C1085.6 35.447 1082 35.4917 1079.66 36.707C1078.05 37.538 1077 39.1018 1076.28 40.7102C1075.56 42.3186 1075 44.0522 1074.67 45.8036C1074.51 46.6525 1074.53 47.5997 1074.29 48.4218C1074.05 49.2439 1073.87 50.1553 1073.66 51.0221C1073.57 51.3885 1073.47 51.7638 1073.28 52.0855C1073.09 52.4071 1072.81 52.702 1072.44 52.8092C1072.17 52.8897 1071.89 52.8629 1071.61 52.8271C1070.08 52.6305 1068.61 52.0497 1067.35 51.1651C1066.89 50.8344 1066.42 50.5038 1065.95 50.1732C1065.72 50.0124 1065.49 49.8426 1065.32 49.6281C1064.72 48.8864 1065.1 48.1448 1065.51 47.4567C1065.95 46.724 1066.42 46.0002 1066.91 45.2943C1069.25 41.9523 1072.09 39.0035 1075.75 37.1359C1080.05 34.9466 1084.92 34.0441 1089.73 34.0441C1095.95 34.0441 1101.05 34.7322 1105 36.0993C1108.96 37.4665 1112.07 39.2894 1114.34 41.5502C1116.61 43.8109 1118.16 46.4112 1119.01 49.3422C1119.86 52.2731 1120.28 55.3381 1120.28 58.546V96.0674L1120.27 96.0584Z" fill="#F6EDD0"/>
<path d="M1052.15 34.0449C1051.49 34.3309 1050.78 34.9921 1050.02 36.0287C1049.27 36.8776 1048.42 38.1286 1047.48 39.7817C1046.53 41.4348 1045.5 43.6777 1044.36 46.5103L1020.46 108.105H1014.65L993.718 46.5103C992.682 43.776 991.691 41.5778 990.745 39.9247C989.798 38.2715 988.95 37.0205 988.2 36.1716C987.352 35.1351 986.593 34.4292 985.933 34.0449H1004.32C1003.76 34.5185 1003.42 35.2691 1003.33 36.3146C1003.15 37.1635 1003.15 38.3877 1003.33 39.9962C1003.52 41.6046 1004.04 43.776 1004.89 46.5103L1022 98.7578L1042.09 46.5103C1043.22 43.6777 1043.93 41.4348 1044.21 39.7817C1044.5 38.1286 1044.59 36.8776 1044.5 36.0287C1044.31 34.9921 1043.98 34.3309 1043.51 34.0449H1052.14H1052.15Z" fill="#F6EDD0"/>
<path d="M1253.42 34.188C1261.25 34.0003 1267.47 35.6534 1272.1 39.1473C1276.71 42.6412 1279.04 47.9223 1279.04 55.0083L1279.18 95.9342C1279.18 98.0073 1279.32 99.8034 1279.6 101.314C1279.88 102.824 1280.21 104.102 1280.59 105.138C1280.96 106.362 1281.44 107.354 1282.01 108.114H1263.9C1264.48 107.265 1264.94 106.273 1265.32 105.138C1265.7 104.102 1266.03 102.824 1266.31 101.314C1266.6 99.8034 1266.73 98.0073 1266.73 95.9342V53.8824C1266.73 51.8093 1266.45 49.772 1265.89 47.7882C1265.32 45.8045 1264.39 44.0173 1263.13 42.4089C1261.86 40.8005 1260.2 39.5048 1258.17 38.5129C1256.15 37.521 1253.67 37.0296 1250.74 37.0296C1246.78 37.0296 1242.99 38.0482 1239.35 40.0767C1235.72 42.1051 1232.04 44.3926 1228.32 46.9483C1224.6 49.495 1220.77 51.9523 1216.86 54.3114C1212.94 56.6704 1208.77 58.2252 1204.34 58.9848V95.9432C1204.34 98.6775 1204.48 100.876 1204.76 102.529C1205.04 104.182 1205.37 105.433 1205.75 106.282C1206.12 107.229 1206.6 107.837 1207.17 108.123C1204.24 108.123 1201.79 108.006 1199.81 107.765C1197.83 107.533 1196.25 107.015 1195.07 106.21C1193.89 105.406 1193.06 104.227 1192.6 102.672C1192.13 101.117 1191.89 99.0617 1191.89 96.515V90.1438C1190.95 92.6905 1189.55 95.0496 1187.72 97.221C1185.89 99.3924 1183.69 101.278 1181.14 102.886C1178.6 104.495 1175.77 105.764 1172.65 106.711C1169.54 107.658 1166.19 108.132 1162.61 108.132C1157.61 108.132 1153.07 107.542 1148.96 106.362C1144.85 105.183 1141.32 103.628 1138.35 101.689C1135.38 99.7587 1133.07 97.4891 1131.42 94.8887C1129.77 92.2974 1128.94 89.5809 1128.94 86.7482C1128.94 82.2178 1129.79 78.4916 1131.49 75.5606C1133.19 72.6386 1135.52 70.2528 1138.49 68.412C1141.46 66.5712 1144.97 65.1773 1149.02 64.239C1152.39 63.4527 1155.79 62.845 1159.22 62.3536C1162.65 61.8621 1165.83 62.014 1169.19 61.5315C1174.76 60.7272 1179.34 58.7792 1184.41 56.4559C1187.3 55.1334 1190.47 53.5071 1191.47 50.4958C1194.81 40.4788 1178.86 35.4032 1171.94 35.5015C1169.01 35.5015 1166.19 35.9751 1163.45 36.9134C1160.71 37.8606 1158.24 39.1831 1156.02 40.8809C1153.61 42.7306 1152.16 44.9824 1150.4 47.3772C1148.8 49.5486 1148.36 51.2553 1147.72 53.9092C1147.62 54.3382 1147.46 54.8028 1147.09 55.0262C1146.74 55.2317 1146.31 55.1871 1145.91 55.1156C1143.41 54.6777 1141.02 53.6054 1139.03 52.0327C1138.85 51.8898 1138.68 51.7468 1138.54 51.5681C1137.81 50.603 1138.44 49.2269 1139.14 48.235C1142.43 43.508 1147.14 40.0141 1152.42 37.6908C1155.53 36.3236 1158.78 35.3496 1162.17 34.7867C1165.57 34.2237 1168.82 33.9378 1171.93 33.9378C1177.78 33.9378 1182.75 34.5007 1186.86 35.6356C1190.96 36.7704 1194.29 38.3521 1196.83 40.3805C1198.63 41.8191 1200.2 43.5527 1201.37 45.5543C1201.85 46.3764 1202.5 47.3951 1202.75 48.3154C1203.23 50.1383 1202.35 52.7655 1204.66 53.525C1205.68 53.8556 1206.78 53.668 1207.83 53.4803C1209.73 53.1318 1211.69 52.7655 1213.35 51.7736C1219.61 48.0027 1218.05 38.7988 1218.05 32.7136V20.7754C1218.05 17.7551 1217.91 15.3245 1217.62 13.4838C1217.35 11.7502 1217.1 9.98095 1216.17 8.46187C1215.94 8.08656 1215.67 7.66658 1215.77 7.23766C1215.87 6.773 1216.36 6.51387 1216.8 6.34409C1221 4.71777 1225.35 3.90462 1229.63 2.60893C1229.79 2.55532 1229.99 2.51064 1230.13 2.60893C1230.26 2.69829 1230.32 2.86807 1230.34 3.02891C1230.58 4.30673 1230.34 5.73645 1230.34 7.04108C1230.33 8.51548 1230.31 9.99882 1230.28 11.4732C1230.24 14.4399 1230.18 17.3976 1230.16 20.3643C1230.1 26.2709 1230.13 32.1864 1230.49 38.084C1230.51 38.3789 1230.52 38.6737 1230.54 38.9597C1230.57 39.2992 1230.59 39.6567 1230.75 39.9605C1231.34 41.1221 1233.07 40.7558 1234.24 40.1839C1240.68 37.0474 1246.1 34.2416 1253.43 34.2416L1253.42 34.188ZM1164.73 105.692C1168.88 105.692 1172.63 104.941 1175.98 103.422C1179.32 101.912 1182.17 99.9285 1184.54 97.4712C1186.89 95.0138 1188.71 92.2348 1189.98 89.1162C1191.25 85.9976 1191.89 82.8433 1191.89 79.6264V60.7898C1185.29 62.0229 1178.95 62.9433 1172.87 63.551C1166.78 64.1675 1161.41 65.1773 1156.75 66.5981C1152.08 68.0188 1148.34 70.1902 1145.57 73.1122C1142.78 76.0432 1141.4 80.4306 1141.4 86.2836C1141.4 89.2145 1141.99 91.8774 1143.17 94.2811C1144.34 96.6848 1145.97 98.7401 1148.05 100.438C1150.12 102.136 1152.6 103.44 1155.48 104.334C1158.35 105.227 1161.44 105.674 1164.74 105.674L1164.73 105.692ZM1218.06 60.9328C1220.32 59.6103 1222.47 58.4039 1224.5 57.3227C1226.52 56.2415 1228.48 54.9369 1230.37 53.4267V96.4882C1230.37 99.1332 1230.09 101.206 1229.52 102.716C1228.96 104.227 1228.06 105.361 1226.84 106.112C1225.6 106.872 1224.03 107.363 1222.1 107.595C1220.16 107.837 1217.83 107.953 1215.1 107.953C1215.66 107.479 1216.18 106.729 1216.65 105.683C1217.02 104.736 1217.35 103.467 1217.64 101.859C1217.93 100.25 1218.07 98.1324 1218.07 95.4874V60.9149L1218.06 60.9328Z" fill="#F6EDD0"/>
</g>
<defs>
<clipPath id="clip0_2025_262">
<rect width="1282" height="166" fill="white"/>
</clipPath>
</defs>
</svg>
