<svg width="280" height="238" viewBox="0 0 280 238" fill="none" xmlns="http://www.w3.org/2000/svg">
<path d="M172.749 161.956C159.425 163.518 143.716 159.548 132.624 159.933C122.037 160.296 108.306 172.602 111.626 186.645C112.583 190.692 115.166 194.211 118.288 196.95C125.027 202.866 134.119 205.362 143.023 206.396C198.628 212.797 240.248 164.981 241.579 111.127C243.755 23.1709 116.892 10.623 55.8242 36.6535C37.1904 44.5935 20.0408 57.0424 0 60.0557C3.60581 47.2659 15.0279 38.3801 26.384 31.4958C88.4634 -6.11484 196.66 -16.9471 252.869 37.8522C297.579 81.4343 282.067 158.47 242.271 200.062C223.132 220.066 197.253 233.713 169.803 237.189C129.908 242.236 74.3699 223.893 69.1371 177.704C63.9152 131.582 115.452 99.3819 156.853 104.397C168.066 105.749 179.488 109.345 187.546 117.263C195.604 125.181 199.397 138.158 194.252 148.221C189.602 157.326 181.72 160.89 172.749 161.945V161.956Z" fill="#2D291F"/>
</svg>
