<svg width="163" height="41" viewBox="0 0 163 41" fill="none" xmlns="http://www.w3.org/2000/svg">
<path d="M101.954 19.3242C108.943 16.7869 115.835 14.0251 123.094 12.3558C132.696 10.1482 147.362 17.9087 150.985 27.1736C152.221 30.3385 152.282 33.8268 152.214 37.2243C152.203 37.8726 152.224 38.6105 152.709 39.0387C153.492 39.7286 154.698 39.063 155.481 38.3765C158.186 36.002 160.614 33.1788 161.854 29.8009C164.511 22.5464 160.143 13.8813 154.718 9.13054C143.889 -0.354079 129.932 -1.46234 116.44 1.35817C105.063 3.73582 94.3094 8.38758 83.6441 13.0111C76.2465 16.2185 68.8489 19.4259 61.4513 22.6333C55.8622 25.0559 50.2374 27.4918 44.3122 28.8996C38.7849 30.2151 30.7978 31.15 25.4028 29.2371C18.6756 26.8572 12.9207 21.2092 8.33212 15.9536C7.12432 14.571 2.28374 6.53286 0.753783 6.43821C-1.44412 6.30106 1.81993 13.9571 2.26309 15.1357C7.42456 28.9791 17.0208 40.6699 32.97 40.3378C47.3466 40.0378 60.0239 34.8213 73.132 29.5994C81.3932 26.3078 89.8434 23.5247 98.2507 20.6329C99.4892 20.207 100.72 19.7685 101.948 19.3207L101.954 19.3242Z" fill="#93A378"/>
</svg>
